<?xml version="1.0" encoding="UTF-8" standalone="yes"?><svg xmlns="http://www.w3.org/2000/svg" xmlns:xlink="http://www.w3.org/1999/xlink" height="260px" style="width:504px;height:260px;" version="1.1" viewBox="0 0 504 260" width="504px"><defs><filter height="300%" id="f1" width="300%" x="-1" y="-1"><feGaussianBlur result="blurOut" stdDeviation="2.0"/><feColorMatrix in="blurOut" result="blurOut2" type="matrix" values="0 0 0 0 0 0 0 0 0 0 0 0 0 0 0 0 0 0 .4 0"/><feOffset dx="4.0" dy="4.0" in="blurOut2" result="blurOut3"/><feBlend in="SourceGraphic" in2="blurOut3" mode="normal"/></filter></defs><g><ellipse cx="179.5919" cy="22.5236" fill="#FEFECE" filter="url(#f1)" rx="22.0919" ry="14.5236" style="stroke: #A80036; stroke-width: 1.5;"/><text fill="#000000" font-family="sans-serif" font-size="14" lengthAdjust="spacingAndGlyphs" textLength="27" x="166.0919" y="27.1721">And</text><ellipse cx="104.3409" cy="120.7168" fill="#FEFECE" filter="url(#f1)" rx="98.3409" ry="23.7168" style="stroke: #A80036; stroke-width: 1.5;"/><text fill="#000000" font-family="sans-serif" font-size="14" lengthAdjust="spacingAndGlyphs" textLength="150" x="29.3409" y="120.7232">ProductPriceInRange:</text><text fill="#000000" font-family="sans-serif" font-size="14" font-weight="bold" lengthAdjust="spacingAndGlyphs" textLength="56" x="76.3409" y="137.02">0 - 100</text><ellipse cx="254.4517" cy="120.3613" fill="#FEFECE" filter="url(#f1)" rx="15.9517" ry="13.3613" style="stroke: #A80036; stroke-width: 1.5;"/><text fill="#000000" font-family="sans-serif" font-size="14" lengthAdjust="spacingAndGlyphs" textLength="16" x="246.4517" y="125.0098">Or</text><ellipse cx="125.3317" cy="229.0663" fill="#FEFECE" filter="url(#f1)" rx="110.8317" ry="24.5663" style="stroke: #A80036; stroke-width: 1.5;"/><text fill="#000000" font-family="sans-serif" font-size="14" lengthAdjust="spacingAndGlyphs" textLength="180" x="35.3317" y="229.9844">ProductMatchesCategory:</text><text fill="#000000" font-family="sans-serif" font-size="14" font-weight="bold" lengthAdjust="spacingAndGlyphs" textLength="60" x="95.3317" y="246.2812">Clothes</text><ellipse cx="384.538" cy="228.9076" fill="#FEFECE" filter="url(#f1)" rx="112.538" ry="24.9076" style="stroke: #A80036; stroke-width: 1.5;"/><text fill="#000000" font-family="sans-serif" font-size="14" lengthAdjust="spacingAndGlyphs" textLength="180" x="294.538" y="229.2168">ProductMatchesCategory:</text><text fill="#000000" font-family="sans-serif" font-size="14" font-weight="bold" lengthAdjust="spacingAndGlyphs" textLength="87" x="341.038" y="245.5136">Electronics</text><path d="M170.001,35.658 C158.788,50.012 139.813,74.299 125.164,93.05 " fill="none" style="stroke: #A80036; stroke-width: 1.0;"/><polygon fill="#A80036" points="121.92,97.202,130.6132,92.573,124.9985,93.2621,124.3094,87.6474,121.92,97.202" style="stroke: #A80036; stroke-width: 1.0;"/><path d="M188.999,35.658 C202.777,53.295 228.274,85.931 243.065,104.863 " fill="none" style="stroke: #A80036; stroke-width: 1.0;"/><polygon fill="#A80036" points="246.228,108.911,243.8386,99.3564,243.1495,104.9711,237.5348,104.282,246.228,108.911" style="stroke: #A80036; stroke-width: 1.0;"/><path d="M243.502,130.58 C224.57,146.21 185.157,178.7483 157.094,201.9162 " fill="none" style="stroke: #A80036; stroke-width: 1.0;"/><polygon fill="#A80036" points="153.04,205.2633,162.5272,202.6187,156.896,202.0803,157.4344,196.4492,153.04,205.2633" style="stroke: #A80036; stroke-width: 1.0;"/><path d="M265.584,130.58 C284.487,146.066 323.651,178.1509 351.877,201.2743 " fill="none" style="stroke: #A80036; stroke-width: 1.0;"/><polygon fill="#A80036" points="355.958,204.6178,351.5307,195.8201,352.0902,201.4492,346.461,202.0087,355.958,204.6178" style="stroke: #A80036; stroke-width: 1.0;"/></g></svg>